{"asset":{"version":"2.0","generator":"THREE.GLTFExporter"},"scenes":[{"nodes":[0],"name":"AuxScene"}],"scene":0,"nodes":[{"mesh":0}],"bufferViews":[{"buffer":0,"byteOffset":0,"byteLength":146412,"target":34962,"byteStride":12},{"buffer":0,"byteOffset":146412,"byteLength":146412,"target":34962,"byteStride":12}],"buffers":[{"byteLength":292824,"uri":"data:application/octet-stream;base64,"}],"accessors":[{"bufferView":0,"componentType":5126,"count":12201,"max":[100.61190795898438,218.19598388671875,103.31192016601562],"min":[-100.68809509277344,0.5959699749946594,-106.98809814453125],"type":"VEC3"},{"bufferView":1,"componentType":5126,"count":12201,"max":[0.9834219813346863,1,0.8857641816139221],"min":[-0.943457305431366,0.07037869840860367,-0.9857359528541565],"type":"VEC3"}],"materials":[{"pbrMetallicRoughness":{"baseColorFactor":[0.5019607843137255,0.5019607843137255,0.5019607843137255,1],"metallicFactor":0,"roughnessFactor":1}}],"meshes":[{"primitives":[{"mode":4,"attributes":{"POSITION":0,"NORMAL":1},"material":0}]}]}