{"asset":{"version":"2.0","generator":"THREE.GLTFExporter"},"scenes":[{"nodes":[0],"name":"AuxScene"}],"scene":0,"nodes":[{"mesh":0}],"bufferViews":[{"buffer":0,"byteOffset":0,"byteLength":21960,"target":34962,"byteStride":12},{"buffer":0,"byteOffset":21960,"byteLength":21960,"target":34962,"byteStride":12}],"buffers":[{"byteLength":43920,"uri":"data:application/octet-stream;base64,"}],"accessors":[{"bufferView":0,"componentType":5126,"count":1830,"max":[99.50001525878906,12.225187301635742,99.50001525878906],"min":[-99.4000015258789,-4.974812984466553,-99.4000015258789],"type":"VEC3"},{"bufferView":1,"componentType":5126,"count":1830,"max":[0.6160871982574463,1,0.4850687086582184],"min":[-0.6591182947158813,0.43055132031440735,-0.6165943741798401],"type":"VEC3"}],"materials":[{"pbrMetallicRoughness":{"baseColorFactor":[0.5019607843137255,0.5019607843137255,0.5019607843137255,1],"metallicFactor":0,"roughnessFactor":1}}],"meshes":[{"primitives":[{"mode":4,"attributes":{"POSITION":0,"NORMAL":1},"material":0}]}]}